<?xml version="1.0" encoding="utf-8"?>
<!-- Generator: Adobe Illustrator 17.0.0, SVG Export Plug-In . SVG Version: 6.00 Build 0)  -->
<!DOCTYPE svg PUBLIC "-//W3C//DTD SVG 1.1//EN" "http://www.w3.org/Graphics/SVG/1.1/DTD/svg11.dtd">
<svg version="1.1" id="Layer_1" xmlns="http://www.w3.org/2000/svg" xmlns:xlink="http://www.w3.org/1999/xlink" x="0px" y="0px"
	 width="103px" height="136px" viewBox="0 0 103 136" enable-background="new 0 0 103 136" xml:space="preserve">
<g>
	<g>
		<path fill="#009BB6" d="M11.95,124.191c0-16.294-0.035-57.018-0.114-61.408c-0.301-16.785-0.121-33.579-0.121-50.68
			c1.834-0.138,3.277-0.339,4.719-0.342c12.995-0.018,25.99-0.064,38.985,0.019c19.301,0.124,33.237,18.912,25.787,36.686
			c-4.04,9.64-2.634,16.696,2.636,24.589c4.45,6.665,7.861,13.798,7.465,22.322c-0.734,15.798-13.015,28.5-28.819,28.754
			C45.838,124.398,29.181,124.191,11.95,124.191z"/>
	</g>
	<g>
		<defs>
			<path id="SVGID_1_" d="M11.95,124.191c0-16.294-0.035-57.018-0.114-61.408c-0.301-16.785-0.121-33.579-0.121-50.68
				c1.834-0.138,3.277-0.339,4.719-0.342c12.995-0.018,25.99-0.064,38.985,0.019c19.301,0.124,33.237,18.912,25.787,36.686
				c-4.04,9.64-2.634,16.696,2.636,24.589c4.45,6.665,7.861,13.798,7.465,22.322c-0.734,15.798-13.015,28.5-28.819,28.754
				C45.838,124.398,29.181,124.191,11.95,124.191z"/>
		</defs>
		<clipPath id="SVGID_2_">
			<use xlink:href="#SVGID_1_"  overflow="visible"/>
		</clipPath>
		<g clip-path="url(#SVGID_2_)">
			<path fill="#FFFFFF" d="M50.508,81.74c-1.827-1.269-4.012-3.395-6.364-2.066c-0.017,0.01-3.802,2.149-3.802,2.149
				c-0.909,0.826-0.744,1.901-0.744,1.901v3.306l-28.43,16.033c-1.24-4.793,1.901-6.777,1.901-6.777l13.223-8.016h4.979l4.443-2.397
				c-5.454-4.711-10.826-1.818-10.826-1.818l-13.802,7.686c-4.876,3.306-4.793,8.678-4.793,8.678v11.157l35.785-20.496l1.405,1.074
				c1.488,1.405,4.132,0,4.132,0c1.781-1.039,4.38-2.012,4.38-4.463c0-0.003,0-3.719,0-3.719
				C51.996,82.979,50.508,81.74,50.508,81.74z M47.947,87.607l-2.231,1.24l-2.645-1.157v-2.975l2.438-1.653l2.438,1.653V87.607z"/>
			<path fill="#FFFFFF" d="M62.988,82.401c-1.653-0.992-3.719,0-3.719,0l-3.636,2.149c-0.909,0.661-0.992,2.562-0.992,2.562v2.562
				L6.707,117.607l2.397,3.884l48.347-27.603l1.653,0.992c1.488,1.074,3.967-0.165,3.967-0.165l2.479-1.653
				c1.571-1.074,1.57-3.554,1.57-3.554s0-2.148,0-2.149C67.12,84.964,64.761,83.477,62.988,82.401z M63.236,90.087l-2.231,1.405
				l-2.81-1.405v-2.562l2.975-1.57l2.066,1.57V90.087z"/>
			<path fill="#FFFFFF" d="M59.93,98.599l-2.231-1.488c-2.149-1.157-3.719,0-3.719,0l-4.132,2.397
				c-0.826,0.578-0.661,2.218-0.661,2.218v2.658L13.98,124.962l10.165,5.454c6.198,2.81,14.334-3.118,14.334-3.118l8.824-5.546
				c4.032-4.064,3.288-9.684,3.288-9.684l-4.711,2.314c0.425,2.638-2.81,4.628-2.81,4.628l-11.798,7.025
				c-2.542,1.157-4.235,0.413-4.235,0.413l-3.802-1.488l28.76-17.107l1.405,1.405c1.57,0.992,3.719,0.331,3.719,0.331l3.471-2.397
				c0.909-0.331,1.157-1.901,1.157-1.901v-3.567C61.748,99.48,59.93,98.599,59.93,98.599z M58.194,104.549l-3.058,1.57l-2.231-1.57
				v-2.456l2.645-1.759l2.645,1.759V104.549z"/>
		</g>
	</g>
</g>
</svg>
